<mxfile host="Electron" agent="Mozilla/5.0 (Windows NT 10.0; Win64; x64) AppleWebKit/537.36 (KHTML, like Gecko) draw.io/27.0.9 Chrome/134.0.6998.205 Electron/35.4.0 Safari/537.36" version="27.0.9">
  <diagram name="Page-1" id="T9PlQgjRNaEy8HaSLi8Y">
    <mxGraphModel dx="1025" dy="524" grid="1" gridSize="10" guides="1" tooltips="1" connect="1" arrows="1" fold="1" page="1" pageScale="1" pageWidth="850" pageHeight="1100" math="0" shadow="0">
      <root>
        <mxCell id="0" />
        <mxCell id="1" parent="0" />
        <mxCell id="oQ3D_R6oTl4UNw48dG-E-9" value="" style="edgeStyle=orthogonalEdgeStyle;rounded=0;orthogonalLoop=1;jettySize=auto;html=1;" edge="1" parent="1" source="oQ3D_R6oTl4UNw48dG-E-1">
          <mxGeometry relative="1" as="geometry">
            <mxPoint x="180" y="90" as="targetPoint" />
          </mxGeometry>
        </mxCell>
        <mxCell id="oQ3D_R6oTl4UNw48dG-E-1" value="visiteur" style="shape=umlActor;verticalLabelPosition=bottom;verticalAlign=top;html=1;outlineConnect=0;" vertex="1" parent="1">
          <mxGeometry x="80" y="30" width="30" height="60" as="geometry" />
        </mxCell>
        <mxCell id="oQ3D_R6oTl4UNw48dG-E-7" value="" style="edgeStyle=orthogonalEdgeStyle;rounded=0;orthogonalLoop=1;jettySize=auto;html=1;" edge="1" parent="1" source="oQ3D_R6oTl4UNw48dG-E-2">
          <mxGeometry relative="1" as="geometry">
            <mxPoint x="95" y="110" as="targetPoint" />
            <Array as="points">
              <mxPoint x="95" y="180" />
              <mxPoint x="95" y="180" />
            </Array>
          </mxGeometry>
        </mxCell>
        <mxCell id="oQ3D_R6oTl4UNw48dG-E-2" value="client" style="shape=umlActor;verticalLabelPosition=bottom;verticalAlign=top;html=1;outlineConnect=0;" vertex="1" parent="1">
          <mxGeometry x="80" y="220" width="30" height="60" as="geometry" />
        </mxCell>
        <mxCell id="oQ3D_R6oTl4UNw48dG-E-5" value="administrateur&lt;div&gt;&lt;br&gt;&lt;/div&gt;" style="shape=umlActor;verticalLabelPosition=bottom;verticalAlign=top;html=1;outlineConnect=0;" vertex="1" parent="1">
          <mxGeometry x="80" y="610" width="30" height="60" as="geometry" />
        </mxCell>
        <mxCell id="oQ3D_R6oTl4UNw48dG-E-6" value="vendeur" style="shape=umlActor;verticalLabelPosition=bottom;verticalAlign=top;html=1;outlineConnect=0;" vertex="1" parent="1">
          <mxGeometry x="80" y="380" width="30" height="60" as="geometry" />
        </mxCell>
        <mxCell id="oQ3D_R6oTl4UNw48dG-E-8" value="accéder a l&#39;application" style="ellipse;whiteSpace=wrap;html=1;" vertex="1" parent="1">
          <mxGeometry x="175" y="60" width="160" height="50" as="geometry" />
        </mxCell>
        <mxCell id="oQ3D_R6oTl4UNw48dG-E-11" value="naviguer dans l&#39;application" style="ellipse;whiteSpace=wrap;html=1;" vertex="1" parent="1">
          <mxGeometry x="310" width="180" height="50" as="geometry" />
        </mxCell>
        <mxCell id="oQ3D_R6oTl4UNw48dG-E-12" value="laisser un message" style="ellipse;whiteSpace=wrap;html=1;" vertex="1" parent="1">
          <mxGeometry x="500" y="10" width="180" height="50" as="geometry" />
        </mxCell>
        <mxCell id="oQ3D_R6oTl4UNw48dG-E-13" value="passer une commande" style="ellipse;whiteSpace=wrap;html=1;" vertex="1" parent="1">
          <mxGeometry x="185" y="150" width="170" height="50" as="geometry" />
        </mxCell>
        <mxCell id="oQ3D_R6oTl4UNw48dG-E-14" value="consulter le catalogue" style="ellipse;whiteSpace=wrap;html=1;" vertex="1" parent="1">
          <mxGeometry x="430" y="70" width="180" height="50" as="geometry" />
        </mxCell>
        <mxCell id="oQ3D_R6oTl4UNw48dG-E-15" value="s&#39;inscrire" style="ellipse;whiteSpace=wrap;html=1;" vertex="1" parent="1">
          <mxGeometry x="340" y="120" width="180" height="50" as="geometry" />
        </mxCell>
        <mxCell id="oQ3D_R6oTl4UNw48dG-E-20" value="annuler une commande" style="ellipse;whiteSpace=wrap;html=1;" vertex="1" parent="1">
          <mxGeometry x="360" y="180" width="180" height="50" as="geometry" />
        </mxCell>
        <mxCell id="oQ3D_R6oTl4UNw48dG-E-21" value="accéder a son dashboard" style="ellipse;whiteSpace=wrap;html=1;" vertex="1" parent="1">
          <mxGeometry x="210" y="240" width="180" height="50" as="geometry" />
        </mxCell>
        <mxCell id="oQ3D_R6oTl4UNw48dG-E-22" value="" style="endArrow=classic;html=1;rounded=0;" edge="1" parent="1">
          <mxGeometry width="50" height="50" relative="1" as="geometry">
            <mxPoint x="120" y="250" as="sourcePoint" />
            <mxPoint x="200" y="260" as="targetPoint" />
          </mxGeometry>
        </mxCell>
        <mxCell id="oQ3D_R6oTl4UNw48dG-E-23" value="ajouter des produits au panier" style="ellipse;whiteSpace=wrap;html=1;" vertex="1" parent="1">
          <mxGeometry x="550" y="180" width="180" height="50" as="geometry" />
        </mxCell>
        <mxCell id="oQ3D_R6oTl4UNw48dG-E-24" value="voir ses factures" style="ellipse;whiteSpace=wrap;html=1;" vertex="1" parent="1">
          <mxGeometry x="550" y="240" width="180" height="40" as="geometry" />
        </mxCell>
        <mxCell id="oQ3D_R6oTl4UNw48dG-E-25" value="modifier ses coordonnés" style="ellipse;whiteSpace=wrap;html=1;" vertex="1" parent="1">
          <mxGeometry x="400" y="310" width="180" height="40" as="geometry" />
        </mxCell>
        <mxCell id="oQ3D_R6oTl4UNw48dG-E-26" value="s&#39;authentifier" style="ellipse;whiteSpace=wrap;html=1;" vertex="1" parent="1">
          <mxGeometry x="205" y="330" width="180" height="40" as="geometry" />
        </mxCell>
        <mxCell id="oQ3D_R6oTl4UNw48dG-E-27" value="se deconnecter" style="ellipse;whiteSpace=wrap;html=1;" vertex="1" parent="1">
          <mxGeometry x="610" y="300" width="180" height="40" as="geometry" />
        </mxCell>
        <mxCell id="oQ3D_R6oTl4UNw48dG-E-35" value="accéder a son dashboard" style="ellipse;whiteSpace=wrap;html=1;" vertex="1" parent="1">
          <mxGeometry x="200" y="400" width="180" height="50" as="geometry" />
        </mxCell>
        <mxCell id="oQ3D_R6oTl4UNw48dG-E-39" value="" style="endArrow=classic;html=1;rounded=0;" edge="1" parent="1">
          <mxGeometry width="50" height="50" relative="1" as="geometry">
            <mxPoint x="120" y="410" as="sourcePoint" />
            <mxPoint x="200" y="420" as="targetPoint" />
          </mxGeometry>
        </mxCell>
        <mxCell id="oQ3D_R6oTl4UNw48dG-E-40" value="ajouter/supprimer/modifier un produit" style="ellipse;whiteSpace=wrap;html=1;" vertex="1" parent="1">
          <mxGeometry x="550" y="380" width="190" height="40" as="geometry" />
        </mxCell>
        <mxCell id="oQ3D_R6oTl4UNw48dG-E-41" value="Lancer une promotion" style="ellipse;whiteSpace=wrap;html=1;" vertex="1" parent="1">
          <mxGeometry x="175" y="480" width="180" height="40" as="geometry" />
        </mxCell>
        <mxCell id="oQ3D_R6oTl4UNw48dG-E-42" value="verifier la création des vendeurs" style="ellipse;whiteSpace=wrap;html=1;" vertex="1" parent="1">
          <mxGeometry x="450" y="760" width="200" height="40" as="geometry" />
        </mxCell>
        <mxCell id="oQ3D_R6oTl4UNw48dG-E-45" value="voir ses clients" style="ellipse;whiteSpace=wrap;html=1;" vertex="1" parent="1">
          <mxGeometry x="370" y="480" width="180" height="40" as="geometry" />
        </mxCell>
        <mxCell id="oQ3D_R6oTl4UNw48dG-E-46" value="consulter les commandes" style="ellipse;whiteSpace=wrap;html=1;" vertex="1" parent="1">
          <mxGeometry x="580" y="440" width="180" height="40" as="geometry" />
        </mxCell>
        <mxCell id="oQ3D_R6oTl4UNw48dG-E-50" value="" style="endArrow=none;dashed=1;html=1;rounded=0;exitX=0.5;exitY=0;exitDx=0;exitDy=0;" edge="1" parent="1" source="oQ3D_R6oTl4UNw48dG-E-41" target="oQ3D_R6oTl4UNw48dG-E-35">
          <mxGeometry width="50" height="50" relative="1" as="geometry">
            <mxPoint x="300" y="570" as="sourcePoint" />
            <mxPoint x="54" y="661" as="targetPoint" />
          </mxGeometry>
        </mxCell>
        <mxCell id="oQ3D_R6oTl4UNw48dG-E-51" value="accéder a son dashboard" style="ellipse;whiteSpace=wrap;html=1;" vertex="1" parent="1">
          <mxGeometry x="185" y="615" width="165" height="50" as="geometry" />
        </mxCell>
        <mxCell id="oQ3D_R6oTl4UNw48dG-E-52" value="" style="endArrow=classic;html=1;rounded=0;entryX=0;entryY=0.5;entryDx=0;entryDy=0;" edge="1" parent="1" source="oQ3D_R6oTl4UNw48dG-E-5" target="oQ3D_R6oTl4UNw48dG-E-51">
          <mxGeometry width="50" height="50" relative="1" as="geometry">
            <mxPoint x="150" y="590" as="sourcePoint" />
            <mxPoint x="230" y="600" as="targetPoint" />
          </mxGeometry>
        </mxCell>
        <mxCell id="oQ3D_R6oTl4UNw48dG-E-53" value="s&#39;authentifier" style="ellipse;whiteSpace=wrap;html=1;" vertex="1" parent="1">
          <mxGeometry x="410" y="540" width="180" height="40" as="geometry" />
        </mxCell>
        <mxCell id="oQ3D_R6oTl4UNw48dG-E-54" value="créer/modifier/supprimer des categories" style="ellipse;whiteSpace=wrap;html=1;" vertex="1" parent="1">
          <mxGeometry x="520" y="580" width="180" height="50" as="geometry" />
        </mxCell>
        <mxCell id="oQ3D_R6oTl4UNw48dG-E-55" value="approuver/rejeter la création des comptes vendeurs" style="ellipse;whiteSpace=wrap;html=1;" vertex="1" parent="1">
          <mxGeometry x="520" y="640" width="210" height="50" as="geometry" />
        </mxCell>
        <mxCell id="oQ3D_R6oTl4UNw48dG-E-56" value="supprimer un produit qui ne respecte pas les normes" style="ellipse;whiteSpace=wrap;html=1;" vertex="1" parent="1">
          <mxGeometry x="520" y="700" width="190" height="60" as="geometry" />
        </mxCell>
        <mxCell id="oQ3D_R6oTl4UNw48dG-E-57" value="se deconnecter" style="ellipse;whiteSpace=wrap;html=1;" vertex="1" parent="1">
          <mxGeometry x="100" y="790" width="180" height="40" as="geometry" />
        </mxCell>
        <mxCell id="oQ3D_R6oTl4UNw48dG-E-58" value="voir les utilisateurs de la plateforme" style="ellipse;whiteSpace=wrap;html=1;" vertex="1" parent="1">
          <mxGeometry x="280" y="770" width="180" height="60" as="geometry" />
        </mxCell>
        <mxCell id="oQ3D_R6oTl4UNw48dG-E-59" value="suivre les campagnes des produits sur les réseaux sociaux" style="ellipse;whiteSpace=wrap;html=1;" vertex="1" parent="1">
          <mxGeometry x="155" y="540" width="205" height="60" as="geometry" />
        </mxCell>
        <mxCell id="oQ3D_R6oTl4UNw48dG-E-67" value="include" style="endArrow=open;endSize=12;dashed=1;html=1;rounded=0;exitX=0.737;exitY=0.02;exitDx=0;exitDy=0;exitPerimeter=0;entryX=0.409;entryY=1.033;entryDx=0;entryDy=0;entryPerimeter=0;" edge="1" parent="1" source="oQ3D_R6oTl4UNw48dG-E-51" target="oQ3D_R6oTl4UNw48dG-E-53">
          <mxGeometry width="160" relative="1" as="geometry">
            <mxPoint x="390" y="560" as="sourcePoint" />
            <mxPoint x="550" y="560" as="targetPoint" />
          </mxGeometry>
        </mxCell>
        <mxCell id="oQ3D_R6oTl4UNw48dG-E-68" value="" style="endArrow=open;endSize=12;dashed=1;html=1;rounded=0;exitX=0;exitY=1;exitDx=0;exitDy=0;entryX=0.804;entryY=0.12;entryDx=0;entryDy=0;entryPerimeter=0;" edge="1" parent="1" source="oQ3D_R6oTl4UNw48dG-E-11" target="oQ3D_R6oTl4UNw48dG-E-8">
          <mxGeometry width="160" relative="1" as="geometry">
            <mxPoint x="390" y="-10" as="sourcePoint" />
            <mxPoint x="550" y="-10" as="targetPoint" />
          </mxGeometry>
        </mxCell>
        <mxCell id="oQ3D_R6oTl4UNw48dG-E-70" value="" style="endArrow=open;endSize=12;dashed=1;html=1;rounded=0;exitX=0.046;exitY=0.64;exitDx=0;exitDy=0;entryX=1;entryY=0.4;entryDx=0;entryDy=0;exitPerimeter=0;entryPerimeter=0;" edge="1" parent="1" source="oQ3D_R6oTl4UNw48dG-E-12" target="oQ3D_R6oTl4UNw48dG-E-8">
          <mxGeometry width="160" relative="1" as="geometry">
            <mxPoint x="370" y="70" as="sourcePoint" />
            <mxPoint x="338" y="93" as="targetPoint" />
          </mxGeometry>
        </mxCell>
        <mxCell id="oQ3D_R6oTl4UNw48dG-E-71" value="" style="endArrow=open;endSize=12;dashed=1;html=1;rounded=0;exitX=0;exitY=0.5;exitDx=0;exitDy=0;entryX=0.975;entryY=0.653;entryDx=0;entryDy=0;entryPerimeter=0;" edge="1" parent="1" source="oQ3D_R6oTl4UNw48dG-E-14" target="oQ3D_R6oTl4UNw48dG-E-8">
          <mxGeometry width="160" relative="1" as="geometry">
            <mxPoint x="380" y="90" as="sourcePoint" />
            <mxPoint x="348" y="113" as="targetPoint" />
          </mxGeometry>
        </mxCell>
        <mxCell id="oQ3D_R6oTl4UNw48dG-E-72" value="" style="endArrow=open;endSize=12;dashed=1;html=1;rounded=0;exitX=0;exitY=0;exitDx=0;exitDy=0;entryX=1;entryY=1;entryDx=0;entryDy=0;" edge="1" parent="1" source="oQ3D_R6oTl4UNw48dG-E-15" target="oQ3D_R6oTl4UNw48dG-E-8">
          <mxGeometry width="160" relative="1" as="geometry">
            <mxPoint x="340" y="110" as="sourcePoint" />
            <mxPoint x="308" y="133" as="targetPoint" />
          </mxGeometry>
        </mxCell>
        <mxCell id="oQ3D_R6oTl4UNw48dG-E-73" value="" style="endArrow=open;endSize=12;dashed=1;html=1;rounded=0;exitX=0.039;exitY=0.68;exitDx=0;exitDy=0;entryX=0.804;entryY=0.12;entryDx=0;entryDy=0;entryPerimeter=0;exitPerimeter=0;" edge="1" parent="1" source="oQ3D_R6oTl4UNw48dG-E-20">
          <mxGeometry width="160" relative="1" as="geometry">
            <mxPoint x="360" y="220" as="sourcePoint" />
            <mxPoint x="328" y="243" as="targetPoint" />
          </mxGeometry>
        </mxCell>
        <mxCell id="oQ3D_R6oTl4UNw48dG-E-75" value="" style="endArrow=open;endSize=12;dashed=1;html=1;rounded=0;exitX=0.5;exitY=1;exitDx=0;exitDy=0;entryX=0.428;entryY=0.093;entryDx=0;entryDy=0;entryPerimeter=0;" edge="1" parent="1" source="oQ3D_R6oTl4UNw48dG-E-13" target="oQ3D_R6oTl4UNw48dG-E-21">
          <mxGeometry width="160" relative="1" as="geometry">
            <mxPoint x="270" y="210" as="sourcePoint" />
            <mxPoint x="238" y="233" as="targetPoint" />
          </mxGeometry>
        </mxCell>
        <mxCell id="oQ3D_R6oTl4UNw48dG-E-76" value="" style="endArrow=open;endSize=12;dashed=1;html=1;rounded=0;exitX=0.094;exitY=0.733;exitDx=0;exitDy=0;entryX=1;entryY=0.5;entryDx=0;entryDy=0;exitPerimeter=0;" edge="1" parent="1" source="oQ3D_R6oTl4UNw48dG-E-23" target="oQ3D_R6oTl4UNw48dG-E-21">
          <mxGeometry width="160" relative="1" as="geometry">
            <mxPoint x="440" y="260" as="sourcePoint" />
            <mxPoint x="408" y="283" as="targetPoint" />
          </mxGeometry>
        </mxCell>
        <mxCell id="oQ3D_R6oTl4UNw48dG-E-77" value="" style="endArrow=open;endSize=12;dashed=1;html=1;rounded=0;exitX=0;exitY=0.5;exitDx=0;exitDy=0;entryX=1;entryY=0.5;entryDx=0;entryDy=0;" edge="1" parent="1" source="oQ3D_R6oTl4UNw48dG-E-24" target="oQ3D_R6oTl4UNw48dG-E-21">
          <mxGeometry width="160" relative="1" as="geometry">
            <mxPoint x="470" y="270" as="sourcePoint" />
            <mxPoint x="438" y="293" as="targetPoint" />
          </mxGeometry>
        </mxCell>
        <mxCell id="oQ3D_R6oTl4UNw48dG-E-78" value="" style="endArrow=open;endSize=12;dashed=1;html=1;rounded=0;entryX=0.983;entryY=0.68;entryDx=0;entryDy=0;entryPerimeter=0;" edge="1" parent="1" source="oQ3D_R6oTl4UNw48dG-E-27" target="oQ3D_R6oTl4UNw48dG-E-21">
          <mxGeometry width="160" relative="1" as="geometry">
            <mxPoint x="430" y="290" as="sourcePoint" />
            <mxPoint x="398" y="313" as="targetPoint" />
          </mxGeometry>
        </mxCell>
        <mxCell id="oQ3D_R6oTl4UNw48dG-E-79" value="" style="endArrow=open;endSize=12;dashed=1;html=1;rounded=0;exitX=0;exitY=0;exitDx=0;exitDy=0;entryX=1;entryY=1;entryDx=0;entryDy=0;" edge="1" parent="1" source="oQ3D_R6oTl4UNw48dG-E-25" target="oQ3D_R6oTl4UNw48dG-E-21">
          <mxGeometry width="160" relative="1" as="geometry">
            <mxPoint x="400" y="300" as="sourcePoint" />
            <mxPoint x="368" y="323" as="targetPoint" />
          </mxGeometry>
        </mxCell>
        <mxCell id="oQ3D_R6oTl4UNw48dG-E-80" value="" style="endArrow=open;endSize=12;dashed=1;html=1;rounded=0;exitX=0.443;exitY=1.027;exitDx=0;exitDy=0;exitPerimeter=0;" edge="1" parent="1" source="oQ3D_R6oTl4UNw48dG-E-21" target="oQ3D_R6oTl4UNw48dG-E-26">
          <mxGeometry width="160" relative="1" as="geometry">
            <mxPoint x="310" y="310" as="sourcePoint" />
            <mxPoint x="278" y="333" as="targetPoint" />
          </mxGeometry>
        </mxCell>
        <mxCell id="oQ3D_R6oTl4UNw48dG-E-82" value="include" style="edgeLabel;html=1;align=center;verticalAlign=middle;resizable=0;points=[];" vertex="1" connectable="0" parent="oQ3D_R6oTl4UNw48dG-E-80">
          <mxGeometry x="-0.3698" y="2" relative="1" as="geometry">
            <mxPoint as="offset" />
          </mxGeometry>
        </mxCell>
        <mxCell id="oQ3D_R6oTl4UNw48dG-E-83" value="" style="endArrow=open;endSize=12;dashed=1;html=1;rounded=0;exitX=0.5;exitY=0;exitDx=0;exitDy=0;entryX=0.444;entryY=1.017;entryDx=0;entryDy=0;entryPerimeter=0;" edge="1" parent="1" source="oQ3D_R6oTl4UNw48dG-E-35" target="oQ3D_R6oTl4UNw48dG-E-26">
          <mxGeometry width="160" relative="1" as="geometry">
            <mxPoint x="290" y="380" as="sourcePoint" />
            <mxPoint x="258" y="403" as="targetPoint" />
          </mxGeometry>
        </mxCell>
        <mxCell id="oQ3D_R6oTl4UNw48dG-E-84" value="include" style="edgeLabel;html=1;align=center;verticalAlign=middle;resizable=0;points=[];" vertex="1" connectable="0" parent="oQ3D_R6oTl4UNw48dG-E-83">
          <mxGeometry x="-0.1726" y="-3" relative="1" as="geometry">
            <mxPoint as="offset" />
          </mxGeometry>
        </mxCell>
        <mxCell id="oQ3D_R6oTl4UNw48dG-E-85" value="" style="endArrow=open;endSize=12;dashed=1;html=1;rounded=0;exitX=0;exitY=1;exitDx=0;exitDy=0;" edge="1" parent="1" source="oQ3D_R6oTl4UNw48dG-E-25" target="oQ3D_R6oTl4UNw48dG-E-35">
          <mxGeometry width="160" relative="1" as="geometry">
            <mxPoint x="420" y="360" as="sourcePoint" />
            <mxPoint x="388" y="383" as="targetPoint" />
          </mxGeometry>
        </mxCell>
        <mxCell id="oQ3D_R6oTl4UNw48dG-E-86" value="" style="endArrow=open;endSize=12;dashed=1;html=1;rounded=0;exitX=0.056;exitY=0.75;exitDx=0;exitDy=0;entryX=0.928;entryY=0.293;entryDx=0;entryDy=0;entryPerimeter=0;exitPerimeter=0;" edge="1" parent="1" source="oQ3D_R6oTl4UNw48dG-E-27" target="oQ3D_R6oTl4UNw48dG-E-35">
          <mxGeometry width="160" relative="1" as="geometry">
            <mxPoint x="460" y="390" as="sourcePoint" />
            <mxPoint x="428" y="413" as="targetPoint" />
          </mxGeometry>
        </mxCell>
        <mxCell id="oQ3D_R6oTl4UNw48dG-E-87" value="" style="endArrow=open;endSize=12;dashed=1;html=1;rounded=0;exitX=0;exitY=0.5;exitDx=0;exitDy=0;entryX=1;entryY=0.5;entryDx=0;entryDy=0;" edge="1" parent="1" source="oQ3D_R6oTl4UNw48dG-E-40" target="oQ3D_R6oTl4UNw48dG-E-35">
          <mxGeometry width="160" relative="1" as="geometry">
            <mxPoint x="460" y="420" as="sourcePoint" />
            <mxPoint x="428" y="443" as="targetPoint" />
          </mxGeometry>
        </mxCell>
        <mxCell id="oQ3D_R6oTl4UNw48dG-E-88" value="" style="endArrow=open;endSize=12;dashed=1;html=1;rounded=0;exitX=0;exitY=0.5;exitDx=0;exitDy=0;entryX=1;entryY=0.5;entryDx=0;entryDy=0;" edge="1" parent="1" source="oQ3D_R6oTl4UNw48dG-E-46" target="oQ3D_R6oTl4UNw48dG-E-35">
          <mxGeometry width="160" relative="1" as="geometry">
            <mxPoint x="430" y="440" as="sourcePoint" />
            <mxPoint x="398" y="463" as="targetPoint" />
          </mxGeometry>
        </mxCell>
        <mxCell id="oQ3D_R6oTl4UNw48dG-E-89" value="" style="endArrow=open;endSize=12;dashed=1;html=1;rounded=0;exitX=0.222;exitY=0;exitDx=0;exitDy=0;entryX=1;entryY=1;entryDx=0;entryDy=0;exitPerimeter=0;" edge="1" parent="1" source="oQ3D_R6oTl4UNw48dG-E-45" target="oQ3D_R6oTl4UNw48dG-E-35">
          <mxGeometry width="160" relative="1" as="geometry">
            <mxPoint x="380" y="450" as="sourcePoint" />
            <mxPoint x="348" y="473" as="targetPoint" />
          </mxGeometry>
        </mxCell>
        <mxCell id="oQ3D_R6oTl4UNw48dG-E-90" value="" style="endArrow=open;endSize=12;dashed=1;html=1;rounded=0;exitX=0.576;exitY=1;exitDx=0;exitDy=0;entryX=0.606;entryY=0.033;entryDx=0;entryDy=0;entryPerimeter=0;exitPerimeter=0;" edge="1" parent="1" source="oQ3D_R6oTl4UNw48dG-E-59" target="oQ3D_R6oTl4UNw48dG-E-51">
          <mxGeometry width="160" relative="1" as="geometry">
            <mxPoint x="280" y="610" as="sourcePoint" />
            <mxPoint x="248" y="633" as="targetPoint" />
          </mxGeometry>
        </mxCell>
        <mxCell id="oQ3D_R6oTl4UNw48dG-E-91" value="" style="endArrow=open;endSize=12;dashed=1;html=1;rounded=0;exitX=0;exitY=0.5;exitDx=0;exitDy=0;entryX=1;entryY=0.5;entryDx=0;entryDy=0;" edge="1" parent="1" source="oQ3D_R6oTl4UNw48dG-E-54" target="oQ3D_R6oTl4UNw48dG-E-51">
          <mxGeometry width="160" relative="1" as="geometry">
            <mxPoint x="390" y="650" as="sourcePoint" />
            <mxPoint x="358" y="673" as="targetPoint" />
          </mxGeometry>
        </mxCell>
        <mxCell id="oQ3D_R6oTl4UNw48dG-E-92" value="" style="endArrow=open;endSize=12;dashed=1;html=1;rounded=0;exitX=0;exitY=0.5;exitDx=0;exitDy=0;entryX=1;entryY=0.5;entryDx=0;entryDy=0;" edge="1" parent="1" source="oQ3D_R6oTl4UNw48dG-E-55" target="oQ3D_R6oTl4UNw48dG-E-51">
          <mxGeometry width="160" relative="1" as="geometry">
            <mxPoint x="420" y="700" as="sourcePoint" />
            <mxPoint x="388" y="723" as="targetPoint" />
          </mxGeometry>
        </mxCell>
        <mxCell id="oQ3D_R6oTl4UNw48dG-E-93" value="" style="endArrow=open;endSize=12;dashed=1;html=1;rounded=0;exitX=0;exitY=0.333;exitDx=0;exitDy=0;entryX=1;entryY=1;entryDx=0;entryDy=0;exitPerimeter=0;" edge="1" parent="1" source="oQ3D_R6oTl4UNw48dG-E-56" target="oQ3D_R6oTl4UNw48dG-E-51">
          <mxGeometry width="160" relative="1" as="geometry">
            <mxPoint x="360" y="710" as="sourcePoint" />
            <mxPoint x="328" y="733" as="targetPoint" />
          </mxGeometry>
        </mxCell>
        <mxCell id="oQ3D_R6oTl4UNw48dG-E-94" value="" style="endArrow=open;endSize=12;dashed=1;html=1;rounded=0;exitX=0;exitY=0;exitDx=0;exitDy=0;entryX=0.739;entryY=0.9;entryDx=0;entryDy=0;entryPerimeter=0;" edge="1" parent="1" source="oQ3D_R6oTl4UNw48dG-E-42" target="oQ3D_R6oTl4UNw48dG-E-51">
          <mxGeometry width="160" relative="1" as="geometry">
            <mxPoint x="380" y="730" as="sourcePoint" />
            <mxPoint x="348" y="753" as="targetPoint" />
          </mxGeometry>
        </mxCell>
        <mxCell id="oQ3D_R6oTl4UNw48dG-E-95" value="" style="endArrow=open;endSize=12;dashed=1;html=1;rounded=0;exitX=0.257;exitY=0.011;exitDx=0;exitDy=0;exitPerimeter=0;" edge="1" parent="1" source="oQ3D_R6oTl4UNw48dG-E-58" target="oQ3D_R6oTl4UNw48dG-E-51">
          <mxGeometry width="160" relative="1" as="geometry">
            <mxPoint x="300" y="740" as="sourcePoint" />
            <mxPoint x="268" y="763" as="targetPoint" />
          </mxGeometry>
        </mxCell>
        <mxCell id="oQ3D_R6oTl4UNw48dG-E-96" value="" style="endArrow=open;endSize=12;dashed=1;html=1;rounded=0;" edge="1" parent="1">
          <mxGeometry width="160" relative="1" as="geometry">
            <mxPoint x="200" y="780" as="sourcePoint" />
            <mxPoint x="240" y="670" as="targetPoint" />
          </mxGeometry>
        </mxCell>
      </root>
    </mxGraphModel>
  </diagram>
</mxfile>
